# xmcd
#
# Track frame offsets: 
#        150
#        15705
#        25386
#        35142
#        48554
#        65190
#        77543
#        94146
#        110330
#        121651
#        135662
#
# Disc length: 2377 seconds
#
# Revision: 0
# Processed by: cddbd v1.5.2PL0 Copyright (c) Steve Scherf et al.
# Submitted via: ExactAudioCopy v0.99pb5
#
DISCID=9209470b
DTITLE=Mizia and Mizia - Long As I Can See The Light
DYEAR=2000
DGENRE=Blues
TTITLE0=01.Long As I Can See The Light
TTITLE1=02.Tobie ta piesn
TTITLE2=03.Rock me
TTITLE3=04.Ballada o dzwinym malarzu
TTITLE4=05.In the evening
TTITLE5=06.Sweet Home Chicago
TTITLE6=07.It hurts me too
TTITLE7=08.Give me my coat and shoes
TTITLE8=09.Profesor boogie   Spotkales mnie
TTITLE9=10.Little red rooster
TTITLE10=11.
EXTD=
EXTT0=
EXTT1=
EXTT2=
EXTT3=
EXTT4=
EXTT5=
EXTT6=
EXTT7=
EXTT8=
EXTT9=
EXTT10=
PLAYORDER=
